<svg width="1601" height="549" viewBox="0 0 1601 549" fill="none" xmlns="http://www.w3.org/2000/svg">
<path d="M131.037 95.5559C110.114 95.5559 63.4411 103.201 63.4411 130.561C63.4411 159.933 82.7542 177.636 82.7542 204.997C82.7542 229.54 57.4058 247.244 57.4058 256.9C57.4058 264.947 62.6364 264.545 69.0741 264.545C79.9377 264.545 119.771 258.107 147.131 258.107C173.686 258.107 202.656 263.74 213.117 263.74C218.75 263.74 220.762 259.314 220.762 256.096C220.762 247.646 197.425 221.895 197.425 199.364C197.425 172.003 230.419 135.389 230.419 92.3371C230.419 36.4097 189.781 0.600098 111.321 0.600098C62.234 0.600098 49.761 11.0613 49.761 22.7296C49.761 32.3862 53.3822 43.2498 53.3822 58.5392C53.3822 64.1722 53.3822 69.4028 52.9799 75.0358C52.9799 79.4617 53.7846 81.8758 57.4058 81.8758C67.4647 81.8758 90.3989 58.1369 123.392 58.1369C162.823 58.1369 202.656 82.6806 202.656 139.815C202.656 191.719 183.343 225.919 137.877 225.517C108.505 225.919 85.5706 216.262 85.5706 193.731C85.5706 153.495 138.279 113.662 138.279 101.591C138.279 97.97 135.463 95.5559 131.037 95.5559Z" fill="white"/>
<path d="M340.535 264.545C378.356 264.545 411.752 237.99 411.752 195.742C411.752 180.453 408.131 173.21 403.705 173.21C392.439 173.21 386.806 210.227 332.488 210.227C287.424 210.227 260.064 178.039 260.064 147.46C260.064 126.94 271.33 112.455 289.838 112.857C328.867 112.455 337.316 166.37 364.274 166.37C383.587 166.37 387.611 146.253 387.611 112.857C387.611 107.224 386.403 105.615 383.989 105.615C376.747 105.615 367.895 117.283 342.547 117.283C307.542 117.283 250.81 101.591 250.81 68.1958C250.81 51.6992 266.099 43.6521 282.193 43.6521C314.382 43.6521 344.961 78.657 376.747 78.657C400.486 78.657 408.935 64.5746 408.935 40.8356C408.935 27.9602 407.326 1.00245 399.681 1.00245C393.244 1.00245 390.025 15.0849 367.895 15.0849C351.801 15.0849 327.66 3.41657 313.175 3.41657C268.916 3.41657 242.36 33.5932 242.36 131.768C242.36 221.493 276.158 264.545 340.535 264.545Z" fill="white"/>
<path d="M460.993 3.41657C439.266 3.41657 424.379 16.2919 423.977 36.4097C423.574 87.1065 456.567 121.307 456.567 160.737C456.567 206.606 422.367 243.22 422.367 252.877C422.367 259.717 425.988 262.533 430.817 262.533C447.715 262.533 485.135 258.912 510.081 258.912C544.281 258.912 581.7 261.729 591.759 261.729C599.001 261.729 601.013 257.303 601.013 250.463C601.013 197.352 528.589 176.027 528.589 141.827C528.589 131.768 534.222 126.537 543.476 126.537C563.996 126.537 566.41 142.631 577.274 142.631C584.516 142.631 592.161 130.963 592.161 106.822C592.161 84.6923 583.309 67.3911 559.973 67.3911C537.038 67.3911 523.358 85.497 523.358 117.283C523.358 145.046 537.038 190.109 537.038 214.653C537.038 235.978 528.589 255.291 503.241 255.291C481.916 255.291 452.141 244.83 452.141 212.641C452.141 169.589 483.927 153.495 485.135 100.384C485.135 92.7394 483.927 82.6806 483.927 75.0358C485.135 35.605 537.843 23.132 537.843 8.64719C537.843 5.026 535.429 3.81892 531.808 3.81892C522.553 3.81892 507.264 5.42835 494.389 5.42835C482.318 5.42835 470.247 3.01422 460.993 3.41657Z" fill="white"/>
<path d="M669.35 120.502C669.35 64.1722 703.953 23.9367 703.953 9.85427C703.953 7.03777 701.941 4.2213 697.917 4.2213C692.285 4.2213 680.616 5.026 669.753 5.026C658.487 5.026 647.623 4.2213 642.392 4.2213C636.759 4.2213 634.345 6.23307 634.345 10.659C634.345 23.132 665.729 64.1722 665.729 120.502C665.729 169.992 623.482 236.783 623.482 251.67C623.482 257.303 626.298 260.924 631.127 260.924C640.381 260.924 659.291 259.717 674.179 259.717C689.066 259.717 707.574 260.924 712 260.924C715.621 260.924 717.633 259.314 717.633 255.693C717.633 231.954 669.35 175.625 669.35 120.502Z" fill="white"/>
<path d="M736.742 85.0947C737.144 50.4921 745.996 43.2497 756.859 43.2497C778.587 43.2497 791.462 62.1604 812.384 62.1604C832.502 62.1604 844.573 53.711 855.839 53.711C863.886 53.711 868.312 60.551 868.312 71.817C868.312 83.4853 861.069 102.396 838.94 102.396C826.467 102.396 817.615 95.5559 806.751 95.5559C795.486 95.5559 788.243 108.431 788.243 134.182C788.243 155.909 796.693 164.761 812.384 164.761C838.135 164.761 856.644 120.1 870.324 80.6688C879.175 54.5157 898.488 20.3155 898.488 9.45192C898.488 7.03777 897.684 3.01422 892.051 3.01422C884.004 3.01422 876.761 10.659 848.999 10.659C836.123 10.659 816.408 2.61187 804.74 2.61187C752.836 2.61187 721.452 59.7463 721.452 150.679C721.452 227.931 752.433 264.545 806.349 264.545C851.815 264.545 887.222 236.38 887.222 157.116C887.222 143.034 883.601 136.194 879.578 136.194C877.968 136.194 875.957 136.596 875.554 142.631C869.519 182.867 850.608 206.606 812.384 206.606C764.906 206.606 736.742 146.253 736.742 85.0947Z" fill="white"/>
<path d="M945.577 120.502C945.577 64.1722 980.179 23.9367 980.179 9.85427C980.179 7.03777 978.167 4.2213 974.144 4.2213C968.511 4.2213 956.842 5.026 945.979 5.026C934.713 5.026 923.849 4.2213 918.619 4.2213C912.986 4.2213 910.572 6.23307 910.572 10.659C910.572 23.132 941.955 64.1722 941.955 120.502C941.955 169.992 899.708 236.783 899.708 251.67C899.708 257.303 902.525 260.924 907.353 260.924C916.607 260.924 935.518 259.717 950.405 259.717C965.292 259.717 983.8 260.924 988.226 260.924C991.847 260.924 993.859 259.314 993.859 255.693C993.859 231.954 945.577 175.625 945.577 120.502Z" fill="white"/>
<path d="M1049.58 2.61187C1027.05 2.61187 998.483 38.0191 998.483 111.65C998.483 154.702 1016.19 196.145 1016.19 221.091C1016.19 227.931 1013.77 239.197 1013.77 243.623C1013.77 259.717 1041.54 262.533 1078.55 262.533C1131.66 262.533 1148.56 250.06 1148.56 237.99C1148.56 226.724 1145.75 218.677 1145.75 209.825C1145.75 189.305 1169.89 141.022 1169.89 103.603C1169.89 25.1438 1129.25 2.61187 1118.38 2.61187C1106.72 2.61187 1093.44 9.04954 1083.38 9.04954C1076.14 9.04954 1056.42 2.61187 1049.58 2.61187ZM1043.55 39.2262C1109.13 39.2262 1148.16 136.999 1148.16 177.636C1148.16 198.157 1134.08 217.47 1101.49 217.47C1078.55 217.47 1062.06 212.641 1052 182.465C1040.33 147.057 1005.32 128.549 1005.32 78.657C1005.32 51.6992 1012.97 39.2262 1043.55 39.2262Z" fill="white"/>
<path d="M1215.34 3.01422C1188.78 3.01422 1177.11 7.44012 1177.11 15.8896C1177.11 28.3626 1205.28 40.0309 1205.28 122.514C1205.28 162.347 1178.72 188.098 1178.72 219.481C1178.72 250.463 1206.89 266.959 1235.86 266.959C1263.22 266.959 1269.25 250.463 1275.69 215.458C1278.51 197.754 1284.54 182.867 1298.62 182.867C1309.89 182.867 1313.11 188.902 1313.11 196.949C1313.11 212.641 1303.45 227.931 1303.45 242.416C1303.45 257.705 1312.3 263.338 1340.87 263.338C1365.42 263.338 1374.27 255.291 1374.27 246.439C1374.27 229.54 1318.34 184.476 1318.34 119.295C1318.34 58.9416 1374.67 24.7414 1374.67 11.0613C1374.67 7.03777 1372.26 4.2213 1367.02 4.2213C1357.77 4.2213 1343.69 5.026 1336.85 5.026C1319.95 5.026 1296.21 3.81892 1288.57 3.81892C1280.92 3.81892 1277.3 6.63542 1277.3 10.659C1277.3 23.132 1315.52 42.0427 1315.52 104.005C1315.52 159.933 1289.37 199.766 1243.5 199.766C1211.72 199.766 1201.66 182.062 1201.66 166.773C1201.66 128.549 1259.19 71.0123 1259.19 33.1909C1259.19 15.4872 1244.71 3.01422 1215.34 3.01422Z" fill="white"/>
<path d="M1451.25 1.4048C1421.88 1.4048 1378.02 54.918 1378.02 92.3371C1378.02 129.756 1395.72 135.389 1473.78 152.69C1519.65 162.749 1537.35 169.589 1537.35 189.707C1537.35 209.422 1522.06 217.47 1492.69 217.47C1439.98 217.47 1418.26 192.926 1418.26 163.152C1418.26 159.53 1417.05 157.519 1411.82 157.519C1390.49 157.519 1375.61 176.832 1375.61 200.571C1375.61 229.943 1392.91 263.74 1461.71 263.74C1516.43 263.74 1540.57 229.943 1540.57 189.707C1540.57 114.467 1400.55 104.005 1400.55 50.0898C1400.55 40.4333 1404.58 36.0074 1413.03 36.0074C1439.98 36.0074 1491.89 73.024 1514.02 73.024C1527.7 73.024 1542.58 42.445 1542.58 23.9367C1542.58 17.9014 1541.38 13.8778 1536.15 14.2802C1516.43 15.8896 1481.43 1.4048 1451.25 1.4048Z" fill="white"/>
<path d="M15.685 366.743C16.0874 332.141 24.9392 324.898 35.8028 324.898C57.5299 324.898 70.4053 343.809 91.3278 343.809C111.446 343.809 123.516 335.36 134.782 335.36C142.829 335.36 147.255 342.2 147.255 353.466C147.255 365.134 140.013 384.045 117.883 384.045C105.41 384.045 96.5584 377.205 85.6948 377.205C74.4289 377.205 67.1865 390.08 67.1865 415.831C67.1865 437.558 75.6359 446.41 91.3278 446.41C117.079 446.41 135.587 401.748 149.267 362.317C158.119 336.164 177.432 301.964 177.432 291.101C177.432 288.686 176.627 284.663 170.994 284.663C162.947 284.663 155.705 292.308 127.942 292.308C115.067 292.308 95.3513 284.261 83.683 284.261C31.7792 284.261 0.395508 341.395 0.395508 432.327C0.395508 509.579 31.3769 546.194 85.2925 546.194C130.759 546.194 166.166 518.029 166.166 438.765C166.166 424.682 162.545 417.842 158.521 417.842C156.912 417.842 154.9 418.245 154.498 424.28C148.462 464.516 129.552 488.255 91.3278 488.255C43.8499 488.255 15.685 427.901 15.685 366.743Z" fill="white"/>
<path d="M236.188 284.261C213.656 284.261 185.089 319.668 185.089 393.299C185.089 436.351 202.793 477.793 202.793 502.739C202.793 509.579 200.379 520.845 200.379 525.271C200.379 541.365 228.141 544.182 265.158 544.182C318.269 544.182 335.168 531.709 335.168 519.638C335.168 508.372 332.351 500.325 332.351 491.473C332.351 470.953 356.492 422.671 356.492 385.252C356.492 306.792 315.855 284.261 304.991 284.261C293.323 284.261 280.045 290.698 269.986 290.698C262.744 290.698 243.028 284.261 236.188 284.261ZM230.153 320.875C295.737 320.875 334.765 418.647 334.765 459.285C334.765 479.805 320.683 499.118 288.092 499.118C265.158 499.118 248.661 494.29 238.602 464.113C226.934 428.706 191.929 410.198 191.929 360.306C191.929 333.348 199.574 320.875 230.153 320.875Z" fill="white"/>
<path d="M438.447 309.609C421.146 309.609 401.43 283.858 378.094 283.858C368.84 283.858 362.402 288.686 362.402 298.343C362.402 320.07 397.809 350.247 397.809 398.529C397.809 449.629 362.804 518.431 362.804 533.721C362.804 539.354 365.621 542.975 370.449 542.975C377.289 542.975 390.969 541.768 402.235 541.768C415.111 541.768 431.607 543.78 435.228 543.78C440.057 543.78 442.471 542.17 442.471 538.549C442.471 500.728 401.028 456.066 401.028 398.932C401.028 354.27 415.915 312.828 438.045 312.828C468.221 312.828 494.777 395.311 494.777 433.937C494.777 479.403 462.588 512.396 462.588 534.525C462.588 543.377 467.417 546.194 500.41 546.194C550.302 546.194 556.337 542.573 556.337 534.525C556.337 515.615 497.996 489.864 497.996 437.155C497.996 373.986 525.356 327.715 555.532 327.715C577.662 327.715 586.112 342.602 585.709 374.79C586.112 425.085 562.373 454.859 562.373 497.106C562.373 526.881 579.271 544.182 608.241 544.182C641.637 544.182 656.926 516.419 656.926 474.977C656.926 459.687 654.11 453.652 650.086 453.652C646.062 453.652 639.625 476.184 609.448 476.184C594.963 476.184 574.846 471.758 574.846 450.836C574.846 418.647 638.418 395.311 638.82 328.922C638.418 299.952 621.921 283.456 600.999 283.456C561.568 283.456 540.243 338.578 521.735 338.578C516.906 338.578 515.699 336.164 515.699 330.531C515.699 305.183 510.469 283.858 490.753 283.858C472.647 283.858 458.967 309.609 438.447 309.609Z" fill="white"/>
<path d="M660.761 292.71C660.761 300.757 695.363 333.75 695.363 382.033C695.363 452.043 660.761 524.467 660.761 538.549C660.761 542.975 663.98 544.182 667.601 544.182C675.648 544.182 690.938 542.17 703.411 542.17C721.114 542.17 744.451 543.78 747.67 543.78C750.486 543.78 752.9 541.365 752.9 538.147C752.9 525.271 697.778 489.059 697.778 410.198C697.778 336.567 725.942 324.094 750.486 324.094C790.722 324.094 817.679 365.134 817.679 411.405C817.679 442.788 808.023 456.066 788.71 456.066C775.432 456.066 762.557 447.214 762.557 424.28C762.557 412.612 764.569 407.784 764.569 402.151C764.569 398.529 762.154 397.322 758.533 397.322C737.611 397.322 716.286 415.428 716.286 448.421C716.286 474.575 734.392 488.255 752.096 488.255C797.562 488.255 836.992 430.315 836.992 353.868C836.992 299.55 823.715 282.651 806.011 282.651C790.722 282.651 766.178 295.929 741.634 295.929C717.895 295.929 688.926 285.87 671.222 285.87C663.577 285.87 660.761 288.686 660.761 292.71Z" fill="white"/>
<path d="M876.203 284.663C849.648 284.663 837.98 289.089 837.98 297.538C837.98 310.011 866.144 321.68 866.144 404.162C866.144 443.996 839.589 469.746 839.589 501.13C839.589 532.111 867.754 548.608 896.723 548.608C924.084 548.608 930.119 532.111 936.557 497.106C939.373 479.403 945.408 464.516 959.491 464.516C970.757 464.516 973.976 470.551 973.976 478.598C973.976 494.29 964.319 509.579 964.319 524.064C964.319 539.354 973.171 544.987 1001.74 544.987C1026.28 544.987 1035.13 536.94 1035.13 528.088C1035.13 511.189 979.206 466.125 979.206 400.944C979.206 340.59 1035.54 306.39 1035.54 292.71C1035.54 288.686 1033.12 285.87 1027.89 285.87C1018.64 285.87 1004.55 286.675 997.715 286.675C980.816 286.675 957.077 285.468 949.432 285.468C941.787 285.468 938.166 288.284 938.166 292.308C938.166 304.781 976.39 323.691 976.39 385.654C976.39 441.581 950.237 481.415 904.368 481.415C872.582 481.415 862.523 463.711 862.523 448.421C862.523 410.198 920.06 352.661 920.06 314.839C920.06 297.136 905.575 284.663 876.203 284.663Z" fill="white"/>
<path d="M1137.37 328.52C1159.5 328.52 1163.52 367.95 1181.63 367.95C1194.91 367.95 1213.41 326.91 1213.41 295.929C1213.41 290.698 1209.79 285.87 1201.75 285.87C1195.71 285.87 1157.08 288.686 1129.32 288.686C1095.12 288.686 1067.76 285.468 1049.25 285.468C1041.61 285.468 1040.4 289.491 1040.4 295.124C1040.4 300.757 1043.22 311.621 1043.22 320.472C1043.22 331.336 1040.8 348.235 1040.8 353.466C1040.8 358.696 1043.22 361.11 1047.64 361.11C1057.7 361.11 1076.21 320.07 1101.16 320.07C1113.23 320.07 1119.26 325.301 1119.26 335.36C1119.26 373.583 1048.05 420.257 1048.05 479.403C1048.05 527.685 1077.02 546.194 1129.72 546.194C1170.36 546.194 1211.4 524.869 1211.4 479C1211.4 468.137 1206.17 462.102 1194.5 446.41C1181.63 429.108 1179.62 417.842 1173.18 417.842C1169.16 417.842 1165.53 420.257 1165.13 433.937C1159.1 516.419 1160.71 542.975 1135.36 542.975C1112.42 542.975 1105.58 511.591 1105.58 470.551C1105.58 391.689 1118.86 328.52 1137.37 328.52Z" fill="white"/>
<path d="M1318.96 546.194C1356.78 546.194 1390.17 519.638 1390.17 477.391C1390.17 462.102 1386.55 454.859 1382.13 454.859C1370.86 454.859 1365.23 491.876 1310.91 491.876C1265.85 491.876 1238.49 459.687 1238.49 429.108C1238.49 408.588 1249.75 394.103 1268.26 394.506C1307.29 394.103 1315.74 448.019 1342.7 448.019C1362.01 448.019 1366.03 427.901 1366.03 394.506C1366.03 388.873 1364.83 387.263 1362.41 387.263C1355.17 387.263 1346.32 398.932 1320.97 398.932C1285.96 398.932 1229.23 383.24 1229.23 349.844C1229.23 333.348 1244.52 325.301 1260.62 325.301C1292.8 325.301 1323.38 360.306 1355.17 360.306C1378.91 360.306 1387.36 346.223 1387.36 322.484C1387.36 309.609 1385.75 282.651 1378.1 282.651C1371.67 282.651 1368.45 296.734 1346.32 296.734C1330.22 296.734 1306.08 285.065 1291.6 285.065C1247.34 285.065 1220.78 315.242 1220.78 413.417C1220.78 503.142 1254.58 546.194 1318.96 546.194Z" fill="white"/>
<path d="M1414.91 285.87C1408.47 285.87 1404.85 288.284 1404.85 293.515C1404.85 308.402 1438.65 340.188 1438.65 424.28C1438.65 466.125 1392.78 521.248 1392.78 533.721C1392.78 539.354 1396 542.975 1400.83 542.975C1411.29 542.975 1431.41 541.768 1447.5 541.768C1466.01 541.768 1488.54 543.78 1493.77 543.78C1499.4 543.78 1501.42 540.963 1501.42 537.342C1501.42 511.994 1441.87 489.462 1441.87 424.682C1441.87 359.903 1464.8 313.632 1494.98 313.632C1516.71 313.632 1527.17 328.922 1527.17 360.708C1527.17 393.299 1514.29 419.854 1475.26 428.706C1471.64 429.511 1469.63 431.523 1469.63 433.937C1469.63 436.753 1472.04 439.57 1476.87 439.972C1503.03 441.179 1512.28 454.457 1512.68 480.208C1513.49 522.052 1526.76 544.584 1572.63 544.584C1591.95 544.584 1600.4 540.963 1600.4 532.111C1600.4 528.49 1598.79 525.674 1593.56 521.65C1584.7 514.005 1578.27 501.13 1575.45 484.231C1570.22 452.847 1556.14 443.593 1523.95 440.374C1512.68 438.765 1503.83 435.948 1503.83 427.901C1503.83 401.748 1583.5 398.529 1583.5 341.395C1583.5 311.218 1561.37 286.675 1527.17 286.675C1511.07 286.675 1493.77 287.882 1475.26 287.882C1451.93 287.882 1423.36 285.87 1414.91 285.87Z" fill="white"/>
</svg>
